<svg width="290" height="88" viewBox="0 0 290 88" fill="none" xmlns="http://www.w3.org/2000/svg">
<path d="M0.625 71V3.35938H28.5625C33.625 3.35938 37.9531 4.21875 41.5469 5.9375C45.1719 7.65625 47.9375 10.1406 49.8438 13.3906C51.7812 16.6094 52.75 20.4844 52.75 25.0156V25.1094C52.75 29.5469 51.6406 33.5 49.4219 36.9688C47.2344 40.4375 44.2656 42.9062 40.5156 44.375L54.7656 71H38.7344L26.125 46.4844C26.0312 46.4844 25.9219 46.4844 25.7969 46.4844C25.6719 46.4844 25.5469 46.4844 25.4219 46.4844H14.7812V71H0.625ZM14.7812 35.75H27.0156C30.5469 35.75 33.2969 34.8125 35.2656 32.9375C37.2656 31.0312 38.2656 28.4219 38.2656 25.1094V25.0156C38.2656 21.7656 37.2344 19.1875 35.1719 17.2812C33.1094 15.375 30.3281 14.4219 26.8281 14.4219H14.7812V35.75ZM78.0625 72.0312C74.375 72.0312 71.2344 71.2812 68.6406 69.7812C66.0781 68.25 64.1094 66.0781 62.7344 63.2656C61.3906 60.4531 60.7188 57.0938 60.7188 53.1875V20.75H74.4062V50.3281C74.4062 53.6094 75.1719 56.1562 76.7031 57.9688C78.2656 59.7812 80.5781 60.6875 83.6406 60.6875C85.1719 60.6875 86.5469 60.4219 87.7656 59.8906C89.0156 59.3594 90.0781 58.6094 90.9531 57.6406C91.8281 56.6406 92.5 55.4688 92.9688 54.125C93.4375 52.75 93.6719 51.25 93.6719 49.625V20.75H107.359V71H93.6719V62.7031H93.3906C92.5156 64.6094 91.3594 66.2656 89.9219 67.6719C88.5156 69.0781 86.8125 70.1562 84.8125 70.9062C82.8438 71.6562 80.5938 72.0312 78.0625 72.0312ZM116.266 71V20.75H129.953V29H130.234C131.547 26.125 133.484 23.8594 136.047 22.2031C138.609 20.5469 141.781 19.7188 145.562 19.7188C151.094 19.7188 155.359 21.3906 158.359 24.7344C161.391 28.0469 162.906 32.6562 162.906 38.5625V71H149.219V41.375C149.219 38.0938 148.438 35.5625 146.875 33.7812C145.344 31.9688 143.047 31.0625 139.984 31.0625C137.953 31.0625 136.188 31.5312 134.688 32.4688C133.188 33.375 132.016 34.6562 131.172 36.3125C130.359 37.9688 129.953 39.9062 129.953 42.125V71H116.266ZM171.859 71V20.75H185.547V71H171.859ZM178.703 14.2812C176.641 14.2812 174.906 13.5781 173.5 12.1719C172.094 10.7656 171.391 9.09375 171.391 7.15625C171.391 5.1875 172.094 3.51562 173.5 2.14062C174.906 0.734375 176.641 0.03125 178.703 0.03125C180.766 0.03125 182.5 0.734375 183.906 2.14062C185.312 3.51562 186.016 5.1875 186.016 7.15625C186.016 9.09375 185.312 10.7656 183.906 12.1719C182.5 13.5781 180.766 14.2812 178.703 14.2812ZM198.391 71V31.0625H191.547V20.75H198.391V16.7188C198.391 13.4375 198.938 10.7344 200.031 8.60938C201.156 6.48438 202.922 4.90625 205.328 3.875C207.766 2.84375 210.969 2.32812 214.938 2.32812C216.188 2.32812 217.453 2.39062 218.734 2.51562C220.016 2.60938 221.047 2.73438 221.828 2.89062V11.9375C221.359 11.8438 220.812 11.7812 220.188 11.75C219.562 11.7188 218.938 11.7031 218.312 11.7031C216.062 11.7031 214.406 12.1719 213.344 13.1094C212.281 14.0469 211.75 15.4219 211.75 17.2344V20.75H221.734V31.0625H212.078V71H198.391ZM236.828 87.5469C235.484 87.5469 234.188 87.4844 232.938 87.3594C231.688 87.2344 230.656 87.0938 229.844 86.9375V76.7656C230.344 76.8594 230.984 76.9531 231.766 77.0469C232.547 77.1719 233.438 77.2344 234.438 77.2344C236.5 77.2344 238.125 76.8906 239.312 76.2031C240.5 75.5156 241.391 74.3281 241.984 72.6406L242.594 71L224.828 20.75H239.875L251.219 62.75L249.391 60.0312H251.969L250.141 62.75L261.484 20.75H275.922L258.672 71.8906C257.359 75.8281 255.703 78.9375 253.703 81.2188C251.734 83.5 249.359 85.125 246.578 86.0938C243.797 87.0625 240.547 87.5469 236.828 87.5469ZM281.547 71.7969C279.422 71.7969 277.625 71.0625 276.156 69.5938C274.688 68.125 273.953 66.3281 273.953 64.2031C273.953 62.0781 274.688 60.2812 276.156 58.8125C277.625 57.3438 279.422 56.6094 281.547 56.6094C283.672 56.6094 285.469 57.3438 286.938 58.8125C288.406 60.2812 289.141 62.0781 289.141 64.2031C289.141 66.3281 288.406 68.125 286.938 69.5938C285.469 71.0625 283.672 71.7969 281.547 71.7969Z" fill="white"/>
</svg>
